<svg fill="none" xmlns="http://www.w3.org/2000/svg"><path d="M7.345 2.569a1 1 0 0 1 1.31 0l.282.244a1 1 0 0 0 .845.226l.366-.07a1 1 0 0 1 1.135.655l.122.352a1 1 0 0 0 .619.619l.352.122a1 1 0 0 1 .655 1.135l-.07.366a1 1 0 0 0 .226.845l.244.282a1 1 0 0 1 0 1.31l-.244.282a1 1 0 0 0-.226.845l.07.366a1 1 0 0 1-.655 1.135l-.352.122a1 1 0 0 0-.619.619l-.122.352a1 1 0 0 1-1.135.655l-.366-.07a1 1 0 0 0-.845.226l-.282.244a1 1 0 0 1-1.31 0l-.282-.244a1 1 0 0 0-.845-.226l-.366.07a1 1 0 0 1-1.135-.655l-.122-.352a1 1 0 0 0-.619-.619l-.352-.122a1 1 0 0 1-.655-1.135l.07-.366a1 1 0 0 0-.226-.845l-.244-.282a1 1 0 0 1 0-1.31l.244-.282a1 1 0 0 0 .226-.845l-.07-.366a1 1 0 0 1 .655-1.135l.352-.122a1 1 0 0 0 .619-.619l.122-.352a1 1 0 0 1 1.135-.655l.366.07a1 1 0 0 0 .845-.226l.282-.244Z" stroke="#1A1A1A"/><path d="m10.4 5.6-4.8 4.8" stroke="#1A1A1A" stroke-linecap="round" stroke-linejoin="round"/><path d="M6.229 6.297h.016M9.829 9.897h.016" stroke="#1A1A1A" stroke-width="2" stroke-linecap="round" stroke-linejoin="round"/></svg>