<svg viewBox="0 0 16 16" fill="none" xmlns="http://www.w3.org/2000/svg" class="" pageName="hotels_srp"><mask id="mask0_4837_11742" maskUnits="userSpaceOnUse" x="0" y="0" width="16" height="16"><rect width="16" height="16" fill="#D9D9D9"/></mask><g mask="url(#mask0_4837_11742)"><path d="M4.72222 13.9104C4.55541 14.0258 4.3886 14.0297 4.2218 13.9223C4.05499 13.8156 4.00494 13.6633 4.07167 13.4657L5.19328 9.78092C5.2557 9.57585 5.18046 9.35381 5.00624 9.22893L2.19508 7.21391C2.01159 7.08212 1.95754 6.92134 2.03294 6.73156C2.10767 6.54244 2.23678 6.44788 2.42027 6.44788H5.95418C6.17374 6.44788 6.3676 6.30466 6.43211 6.09479L7.59966 2.29653C7.63302 2.19768 7.68707 2.12355 7.7618 2.07413C7.8372 2.02471 7.9166 2 8 2C8.08341 2 8.16281 2.02471 8.2382 2.07413C8.31293 2.12355 8.36698 2.19768 8.40034 2.29653L9.56789 6.09479C9.6324 6.30466 9.82626 6.44788 10.0458 6.44788H13.5797C13.7632 6.44788 13.8923 6.54244 13.9671 6.73156C14.0425 6.92134 13.9884 7.08212 13.8049 7.21391L10.9938 9.22893C10.8195 9.35381 10.7443 9.57585 10.8067 9.78091L11.9283 13.4657C11.9951 13.6633 11.945 13.8156 11.7782 13.9223C11.6114 14.0297 11.4446 14.0258 11.2778 13.9104L8.29906 11.6873C8.12167 11.5549 7.87833 11.5549 7.70094 11.6873L4.72222 13.9104ZM5.68254 11.7437C5.6555 11.836 5.76164 11.9095 5.83855 11.8518L7.69975 10.4541C7.87763 10.3205 8.12237 10.3205 8.30025 10.4541L10.1614 11.8518C10.2384 11.9095 10.3445 11.836 10.3175 11.7437L9.62566 9.38175C9.56611 9.17841 9.64118 8.95962 9.81301 8.83568L11.5021 7.61741C11.5808 7.56063 11.5406 7.4363 11.4436 7.4363H9.31917C9.10011 7.4363 8.90656 7.2937 8.84164 7.08448L8.09551 4.67999C8.0664 4.58617 7.93361 4.58617 7.90449 4.67999L7.15837 7.08448C7.09344 7.2937 6.89989 7.4363 6.68083 7.4363H4.55641C4.45936 7.4363 4.4192 7.56064 4.49791 7.61741L6.18699 8.83568C6.35883 8.95962 6.43389 9.17841 6.37434 9.38175L5.68254 11.7437Z" fill="#1A1A1A"/></g></svg>