<svg width="183" height="128" viewBox="0 0 183 128" fill="none" xmlns="http://www.w3.org/2000/svg">
<g opacity="0.05">
<path d="M80.0587 -30.088C89.6919 -13.5393 99.4084 2.96076 108.937 19.572C93.5354 46.7408 78.3559 74.0417 62.4327 100.912C56.3234 111.226 50.3808 121.637 44.341 131.987C24.755 132.105 5.16901 132.098 -14.417 132.07C-13.8193 130.729 -13.2285 129.38 -12.5057 128.101C18.3329 75.3623 49.2896 22.6927 80.0587 -30.088Z" fill="#AE285D"/>
<path d="M80.0654 70.8028C99.7209 70.7959 119.376 70.6569 139.032 70.9835C150.736 91.3897 162.816 111.573 174.416 132.035C154.761 132.132 135.112 132.056 115.456 132.042C103.759 111.566 91.5404 91.4036 80.0654 70.8028Z" fill="#AE285D"/>
</g>
</svg>
