<svg width="24" height="25" viewBox="0 0 24 25" fill="none" xmlns="http://www.w3.org/2000/svg">
<path d="M7.76514 16.2893L7.72523 16.3279C7.09855 16.9664 6.37335 17.3038 5.62632 17.3038C4.06617 17.3038 2.9344 16.1334 2.9344 14.519C2.9344 12.9071 4.06617 11.7348 5.62632 11.7348C6.37335 11.7348 7.09855 12.074 7.72523 12.715L7.76514 12.753L8.76845 11.5396L8.74163 11.5072C7.90731 10.5213 6.90587 10.0418 5.67496 10.0418C4.44093 10.0418 3.31104 10.4577 2.49791 11.2066C1.61245 12.0185 1.14665 13.1633 1.14665 14.519C1.14665 15.8746 1.61245 17.0219 2.49791 17.8338C3.31104 18.5871 4.44093 18.9999 5.67496 18.9999C6.90587 18.9999 7.90731 18.5197 8.74163 17.5333L8.76845 17.5033L7.76514 16.2893Z" fill="#002D72"/>
<path d="M9.7818 18.8344H11.5539V10.1819H9.7818V18.8344Z" fill="#002D72"/>
<path d="M18.497 16.9534C18.0237 17.2415 17.5841 17.3868 17.1888 17.3868C16.6157 17.3868 16.3563 17.0837 16.3563 16.4103V11.819H18.1628V10.1902H16.3563V7.49769L14.6197 8.42805V10.1902H13.1207V11.819H14.6197V16.7027C14.6197 18.0328 15.4079 18.9432 16.5852 18.9669C17.3839 18.9825 17.8653 18.7443 18.1572 18.5697L18.1759 18.5578L18.6018 16.8892L18.497 16.9534Z" fill="#002D72"/>
<path d="M19.9639 18.8344H21.7386V10.1819H19.9639V18.8344Z" fill="#002D72"/>
<path d="M22.7723 8.66517C21.1529 6.37171 18.4641 5.00361 15.7285 5.00361C12.9936 5.00361 10.3041 6.37171 8.68787 8.66517L8.60431 8.78302H10.6434L10.6658 8.7587C12.0532 7.32576 13.8653 6.56875 15.7285 6.56875C17.5917 6.56875 19.4025 7.32576 20.7931 8.7587L20.8155 8.78302H22.8533L22.7723 8.66517Z" fill="#EE1C25"/>
</svg>
