<svg width="24" height="24" viewBox="0 0 24 24" fill="none" xmlns="http://www.w3.org/2000/svg">
<mask id="mask0_7637_74570" style="mask-type:alpha" maskUnits="userSpaceOnUse" x="0" y="0" width="24" height="24">
<rect width="24" height="24" fill="#D9D9D9"/>
</mask>
<g mask="url(#mask0_7637_74570)">
<path d="M17.3958 21.25C17.3403 21.25 17.2865 21.2396 17.2346 21.2187C17.1824 21.1979 17.1354 21.1667 17.0937 21.125L14.5833 18.5104C14.5347 18.4618 14.4949 18.3958 14.4638 18.3125C14.4324 18.2292 14.4167 18.1528 14.4167 18.0833C14.4167 17.9236 14.4739 17.7864 14.5883 17.6717C14.7031 17.5572 14.8403 17.5 15 17.5H15.875C16.2431 17.5 16.5608 17.3801 16.8283 17.1404C17.0956 16.901 17.2569 16.6042 17.3125 16.25H14.4167C14.2986 16.25 14.1996 16.21 14.1196 16.13C14.0399 16.0503 14 15.9514 14 15.8333C14 15.7153 14.0399 15.6162 14.1196 15.5362C14.1996 15.4565 14.2986 15.4167 14.4167 15.4167H17.1875C17.0694 15.1736 16.8942 14.9739 16.6617 14.8175C16.4289 14.6614 16.1667 14.5833 15.875 14.5833H14.4167C14.2986 14.5833 14.1996 14.5433 14.1196 14.4633C14.0399 14.3836 14 14.2847 14 14.1667C14 14.0486 14.0399 13.9496 14.1196 13.8696C14.1996 13.7899 14.2986 13.75 14.4167 13.75H18.5833C18.7014 13.75 18.8003 13.7899 18.88 13.8696C18.96 13.9496 19 14.0486 19 14.1667C19 14.2847 18.96 14.3836 18.88 14.4633C18.8003 14.5433 18.7014 14.5833 18.5833 14.5833H17.6458C17.7431 14.7014 17.8299 14.8299 17.9062 14.9687C17.9826 15.1076 18.0417 15.2569 18.0833 15.4167H18.5833C18.7014 15.4167 18.8003 15.4565 18.88 15.5362C18.96 15.6162 19 15.7153 19 15.8333C19 15.9514 18.96 16.0503 18.88 16.13C18.8003 16.21 18.7014 16.25 18.5833 16.25H18.1562C18.1007 16.8403 17.8576 17.335 17.4271 17.7342C16.9965 18.1336 16.4792 18.3333 15.875 18.3333H15.5729L17.6979 20.5417C17.8229 20.6736 17.8489 20.8246 17.7758 20.9946C17.7031 21.1649 17.5764 21.25 17.3958 21.25Z" fill="#FF4F17"/>
<path d="M15.6904 18.3833H15.875C16.4914 18.3833 17.021 18.1791 17.4611 17.7708C17.8897 17.3735 18.1367 16.8825 18.2014 16.3H18.5833C18.714 16.3 18.8258 16.2552 18.9154 16.1654C18.9153 16.1654 18.9153 16.1654 18.9153 16.1654L15.6904 18.3833ZM15.6904 18.3833L17.7339 20.507L17.7342 20.5073C17.8022 20.5791 17.8455 20.6585 17.8604 20.7454C17.8754 20.8322 17.8613 20.9222 17.8218 21.0142L15.6904 18.3833ZM18.1216 15.3667C18.0797 15.2171 18.0225 15.0764 17.9501 14.9447C17.8895 14.8345 17.8225 14.7308 17.7489 14.6333H18.5833C18.714 14.6333 18.8258 14.5885 18.9154 14.4987C19.0052 14.4091 19.05 14.2973 19.05 14.1667C19.05 14.036 19.0052 13.924 18.9154 13.8342C18.8258 13.7446 18.714 13.7 18.5833 13.7H14.4167C14.286 13.7 14.1741 13.7446 14.0843 13.8342L14.0843 13.8342L14.0842 13.8343C13.9946 13.9241 13.95 14.036 13.95 14.1667C13.95 14.2973 13.9946 14.4091 14.0842 14.4987C14.174 14.5885 14.286 14.6333 14.4167 14.6333H15.875C16.1572 14.6333 16.4096 14.7087 16.6338 14.859C16.8358 14.9949 16.9927 15.164 17.1052 15.3667H14.4167C14.286 15.3667 14.1741 15.4113 14.0843 15.5008L14.0842 15.501C13.9946 15.5908 13.95 15.7027 13.95 15.8333C13.95 15.964 13.9946 16.0758 14.0842 16.1654C14.174 16.2552 14.286 16.3 14.4167 16.3H17.253C17.1914 16.6173 17.039 16.8846 16.795 17.1032L16.795 17.1032C16.5369 17.3345 16.2311 17.45 15.875 17.45H15C14.8268 17.45 14.677 17.5126 14.553 17.6363L14.5529 17.6364C14.4293 17.7603 14.3667 17.9102 14.3667 18.0833C14.3667 18.1602 14.384 18.2426 14.4169 18.3301C14.4169 18.33 14.4169 18.33 14.4169 18.33L18.1216 15.3667ZM14.5476 18.5454L17.0577 21.1596L17.0577 21.1596L17.0584 21.1604C17.1046 21.2066 17.1572 21.2417 17.216 21.2652C17.216 21.2652 17.216 21.2652 17.2161 21.2652L14.5476 18.5454Z" stroke="#FF4F17" stroke-width="0.1"/>
<path d="M5.3077 19.5001C4.80257 19.5001 4.375 19.3251 4.025 18.9751C3.675 18.6251 3.5 18.1975 3.5 17.6924V6.30784C3.5 5.80271 3.675 5.37514 4.025 5.02514C4.375 4.67514 4.80257 4.50014 5.3077 4.50014H6.69233V2.38477H8.23075V4.50014H13.8077V2.38477H15.3076V4.50014H16.6922C17.1974 4.50014 17.625 4.67514 17.975 5.02514C18.325 5.37514 18.5 5.80271 18.5 6.30784V11.4636C18.5 11.8631 18.1495 12.1694 17.75 12.1694C17.3505 12.1694 17 11.8631 17 11.4637V10.3078H4.99997V17.6924C4.99997 17.7693 5.03202 17.8398 5.09612 17.904C5.16024 17.9681 5.23077 18.0001 5.3077 18.0001H11.3924C11.8076 18.0001 12.1397 18.338 12.1904 18.7501C12.2367 19.1269 11.9691 19.5001 11.5895 19.5001H5.3077ZM4.99997 8.80787H17V6.30784C17 6.23091 16.9679 6.16038 16.9038 6.09627C16.8397 6.03217 16.7692 6.00012 16.6922 6.00012H5.3077C5.23077 6.00012 5.16024 6.03217 5.09612 6.09627C5.03202 6.16038 4.99997 6.23091 4.99997 6.30784V8.80787Z" fill="#1C1B1F"/>
</g>
</svg>
