<svg width="153" height="13" viewBox="0 0 153 13" fill="none" xmlns="http://www.w3.org/2000/svg">
<path d="M62.0737 3.00003H58.6315C57.6228 3.00003 56.8037 3.75731 56.8037 4.68982V7.79091C56.8037 8.72342 57.6228 9.4807 58.6315 9.4807H62.0737C63.0824 9.4807 63.9015 8.72342 63.9015 7.79091V4.69295C63.9015 3.76044 63.0824 3.00316 62.0737 3.00316V3.00003ZM62.1787 8.25717C62.1787 8.4105 62.0433 8.53567 61.8774 8.53567H58.8278C58.6619 8.53567 58.5265 8.4105 58.5265 8.25717V4.79622C58.5265 4.64289 58.6619 4.51772 58.8278 4.51772H61.8774C62.0433 4.51772 62.1787 4.64289 62.1787 4.79622V8.25717Z" fill="#FF4F17"/>
<path d="M64.1886 5.47208H56.5155C56.1491 5.47208 55.8521 5.74667 55.8521 6.08541V11.8151C55.8521 12.1538 56.1491 12.4284 56.5155 12.4284H64.1886C64.555 12.4284 64.8521 12.1538 64.8521 11.8151V6.08541C64.8521 5.74667 64.555 5.47208 64.1886 5.47208Z" fill="#FF4F17"/>
<path d="M62.7708 9.67862H61.136V11.2182H59.5621V9.67862H57.9272V8.22352H59.5621V6.68393H61.136V8.22352H62.7708V9.67862Z" fill="white"/>
<path d="M0 0.5625H2.57955L6.03409 8.99432H6.17045L9.625 0.5625H12.2045V12.1989H10.1818V4.20455H10.0739L6.85795 12.1648H5.34659L2.13068 4.1875H2.02273V12.1989H0V0.5625Z" fill="#1A1A1A"/>
<path d="M18.2727 12.3693C17.3977 12.3693 16.642 12.1875 16.0057 11.8239C15.3731 11.4564 14.8864 10.9375 14.5455 10.267C14.2045 9.5928 14.0341 8.79924 14.0341 7.88636C14.0341 6.98864 14.2045 6.20076 14.5455 5.52273C14.8902 4.84091 15.3712 4.31061 15.9886 3.93182C16.6061 3.54924 17.3314 3.35795 18.1648 3.35795C18.7027 3.35795 19.2102 3.44508 19.6875 3.61932C20.1686 3.78977 20.5928 4.05492 20.9602 4.41477C21.3314 4.77462 21.6231 5.23295 21.8352 5.78977C22.0473 6.3428 22.1534 7.00189 22.1534 7.76705V8.39773H15V7.01136H20.1818C20.178 6.61742 20.0928 6.26705 19.9261 5.96023C19.7595 5.64962 19.5265 5.4053 19.2273 5.22727C18.9318 5.04924 18.5871 4.96023 18.1932 4.96023C17.7727 4.96023 17.4034 5.0625 17.0852 5.26705C16.767 5.4678 16.5189 5.73295 16.3409 6.0625C16.1667 6.38826 16.0777 6.74621 16.0739 7.13636V8.34659C16.0739 8.85417 16.1667 9.28977 16.3523 9.65341C16.5379 10.0133 16.7973 10.2898 17.1307 10.483C17.464 10.6723 17.8542 10.767 18.3011 10.767C18.6004 10.767 18.8712 10.7254 19.1136 10.642C19.3561 10.5549 19.5663 10.428 19.7443 10.2614C19.9223 10.0947 20.0568 9.88826 20.1477 9.64205L22.0682 9.85795C21.947 10.3655 21.7159 10.8087 21.375 11.1875C21.0379 11.5625 20.6061 11.8542 20.0795 12.0625C19.553 12.267 18.9508 12.3693 18.2727 12.3693Z" fill="#1A1A1A"/>
<path d="M27.1321 12.3523C26.4465 12.3523 25.8329 12.1761 25.2912 11.8239C24.7495 11.4716 24.3215 10.9602 24.0071 10.2898C23.6927 9.61932 23.5355 8.80492 23.5355 7.84659C23.5355 6.87689 23.6946 6.05871 24.0128 5.39205C24.3348 4.72159 24.7685 4.21591 25.3139 3.875C25.8594 3.5303 26.4673 3.35795 27.1378 3.35795C27.6491 3.35795 28.0696 3.44508 28.3991 3.61932C28.7287 3.78977 28.9901 3.99621 29.1832 4.23864C29.3764 4.47727 29.526 4.70265 29.6321 4.91477H29.7173V0.5625H31.7798V12.1989H29.7571V10.8239H29.6321C29.526 11.036 29.3726 11.2614 29.1719 11.5C28.9711 11.7348 28.706 11.9356 28.3764 12.1023C28.0469 12.2689 27.6321 12.3523 27.1321 12.3523ZM27.706 10.6648C28.1416 10.6648 28.5128 10.5473 28.8196 10.3125C29.1264 10.0739 29.3594 9.74242 29.5185 9.31818C29.6776 8.89394 29.7571 8.39962 29.7571 7.83523C29.7571 7.27083 29.6776 6.7803 29.5185 6.36364C29.3632 5.94697 29.1321 5.62311 28.8253 5.39205C28.5223 5.16098 28.1491 5.04545 27.706 5.04545C27.2476 5.04545 26.8651 5.16477 26.5582 5.40341C26.2514 5.64205 26.0204 5.97159 25.8651 6.39205C25.7098 6.8125 25.6321 7.29356 25.6321 7.83523C25.6321 8.38068 25.7098 8.86742 25.8651 9.29545C26.0241 9.7197 26.2571 10.0549 26.5639 10.3011C26.8745 10.5436 27.2552 10.6648 27.706 10.6648Z" fill="#1A1A1A"/>
<path d="M33.9716 12.1989V3.47159H36.0284V12.1989H33.9716ZM35.0057 2.23295C34.6799 2.23295 34.3996 2.125 34.1648 1.90909C33.9299 1.68939 33.8125 1.42614 33.8125 1.11932C33.8125 0.808712 33.9299 0.545454 34.1648 0.329545C34.3996 0.109848 34.6799 0 35.0057 0C35.3352 0 35.6155 0.109848 35.8466 0.329545C36.0814 0.545454 36.1989 0.808712 36.1989 1.11932C36.1989 1.42614 36.0814 1.68939 35.8466 1.90909C35.6155 2.125 35.3352 2.23295 35.0057 2.23295Z" fill="#1A1A1A"/>
<path d="M43.4332 6.50568V8.19886H38.1946V6.50568H43.4332Z" fill="#1A1A1A"/>
<path d="M49.4034 12.3693C48.5322 12.3693 47.7841 12.178 47.1591 11.7955C46.5379 11.4129 46.0587 10.8845 45.7216 10.2102C45.3883 9.5322 45.2216 8.75189 45.2216 7.86932C45.2216 6.98295 45.392 6.20076 45.733 5.52273C46.0739 4.84091 46.5549 4.31061 47.1761 3.93182C47.8011 3.54924 48.5398 3.35795 49.392 3.35795C50.1004 3.35795 50.7273 3.48864 51.2727 3.75C51.822 4.00758 52.2595 4.37311 52.5852 4.84659C52.911 5.31629 53.0966 5.86553 53.142 6.49432H51.1761C51.0966 6.07386 50.9072 5.72348 50.608 5.44318C50.3125 5.15909 49.9167 5.01705 49.4205 5.01705C49 5.01705 48.6307 5.13068 48.3125 5.35795C47.9943 5.58144 47.7462 5.90341 47.5682 6.32386C47.3939 6.74432 47.3068 7.24811 47.3068 7.83523C47.3068 8.42992 47.3939 8.94129 47.5682 9.36932C47.7424 9.79356 47.9867 10.1212 48.3011 10.3523C48.6193 10.5795 48.9924 10.6932 49.4205 10.6932C49.7235 10.6932 49.9943 10.6364 50.233 10.5227C50.4754 10.4053 50.678 10.2367 50.8409 10.017C51.0038 9.79735 51.1155 9.5303 51.1761 9.21591H53.142C53.0928 9.83333 52.911 10.3807 52.5966 10.858C52.2822 11.3314 51.8542 11.7027 51.3125 11.9716C50.7708 12.2367 50.1345 12.3693 49.4034 12.3693Z" fill="#1A1A1A"/>
<path d="M68.794 7.08523V12.1989H66.7372V3.47159H68.7031V4.95455H68.8054C69.0062 4.46591 69.3262 4.07765 69.7656 3.78977C70.2088 3.50189 70.7562 3.35795 71.4077 3.35795C72.0099 3.35795 72.5346 3.48674 72.9815 3.74432C73.4323 4.00189 73.7808 4.375 74.027 4.86364C74.277 5.35227 74.4001 5.94508 74.3963 6.64205V12.1989H72.3395V6.96023C72.3395 6.37689 72.188 5.92045 71.8849 5.59091C71.5857 5.26136 71.1709 5.09659 70.6406 5.09659C70.2808 5.09659 69.9607 5.17614 69.6804 5.33523C69.4039 5.49053 69.1861 5.71591 69.027 6.01136C68.8717 6.30682 68.794 6.66477 68.794 7.08523Z" fill="#1A1A1A"/>
<path d="M80.294 12.3693C79.4228 12.3693 78.6747 12.178 78.0497 11.7955C77.4285 11.4129 76.9493 10.8845 76.6122 10.2102C76.2789 9.5322 76.1122 8.75189 76.1122 7.86932C76.1122 6.98295 76.2827 6.20076 76.6236 5.52273C76.9645 4.84091 77.4455 4.31061 78.0668 3.93182C78.6918 3.54924 79.4304 3.35795 80.2827 3.35795C80.991 3.35795 81.6179 3.48864 82.1634 3.75C82.7126 4.00758 83.1501 4.37311 83.4759 4.84659C83.8016 5.31629 83.9872 5.86553 84.0327 6.49432H82.0668C81.9872 6.07386 81.7978 5.72348 81.4986 5.44318C81.2031 5.15909 80.8073 5.01705 80.3111 5.01705C79.8906 5.01705 79.5213 5.13068 79.2031 5.35795C78.8849 5.58144 78.6368 5.90341 78.4588 6.32386C78.2846 6.74432 78.1974 7.24811 78.1974 7.83523C78.1974 8.42992 78.2846 8.94129 78.4588 9.36932C78.633 9.79356 78.8774 10.1212 79.1918 10.3523C79.5099 10.5795 79.883 10.6932 80.3111 10.6932C80.6141 10.6932 80.8849 10.6364 81.1236 10.5227C81.366 10.4053 81.5687 10.2367 81.7315 10.017C81.8944 9.79735 82.0062 9.5303 82.0668 9.21591H84.0327C83.9834 9.83333 83.8016 10.3807 83.4872 10.858C83.1728 11.3314 82.7448 11.7027 82.2031 11.9716C81.6615 12.2367 81.0251 12.3693 80.294 12.3693Z" fill="#1A1A1A"/>
<path d="M89.5852 12.3693C88.7102 12.3693 87.9545 12.1875 87.3182 11.8239C86.6856 11.4564 86.1989 10.9375 85.858 10.267C85.517 9.5928 85.3466 8.79924 85.3466 7.88636C85.3466 6.98864 85.517 6.20076 85.858 5.52273C86.2027 4.84091 86.6837 4.31061 87.3011 3.93182C87.9186 3.54924 88.6439 3.35795 89.4773 3.35795C90.0152 3.35795 90.5227 3.44508 91 3.61932C91.4811 3.78977 91.9053 4.05492 92.2727 4.41477C92.6439 4.77462 92.9356 5.23295 93.1477 5.78977C93.3598 6.3428 93.4659 7.00189 93.4659 7.76705V8.39773H86.3125V7.01136H91.4943C91.4905 6.61742 91.4053 6.26705 91.2386 5.96023C91.072 5.64962 90.839 5.4053 90.5398 5.22727C90.2443 5.04924 89.8996 4.96023 89.5057 4.96023C89.0852 4.96023 88.7159 5.0625 88.3977 5.26705C88.0795 5.4678 87.8314 5.73295 87.6534 6.0625C87.4792 6.38826 87.3901 6.74621 87.3864 7.13636V8.34659C87.3864 8.85417 87.4792 9.28977 87.6648 9.65341C87.8504 10.0133 88.1098 10.2898 88.4432 10.483C88.7765 10.6723 89.1667 10.767 89.6136 10.767C89.9129 10.767 90.1837 10.7254 90.4261 10.642C90.6686 10.5549 90.8788 10.428 91.0568 10.2614C91.2348 10.0947 91.3693 9.88826 91.4602 9.64205L93.3807 9.85795C93.2595 10.3655 93.0284 10.8087 92.6875 11.1875C92.3504 11.5625 91.9186 11.8542 91.392 12.0625C90.8655 12.267 90.2633 12.3693 89.5852 12.3693Z" fill="#1A1A1A"/>
<path d="M97.2628 0.5625V12.1989H95.206V0.5625H97.2628Z" fill="#1A1A1A"/>
<path d="M103.347 12.1989V3.47159H105.341V4.92614H105.432C105.591 4.42235 105.864 4.03409 106.25 3.76136C106.64 3.48485 107.085 3.34659 107.585 3.34659C107.699 3.34659 107.826 3.35227 107.966 3.36364C108.11 3.37121 108.229 3.38447 108.324 3.40341V5.29545C108.237 5.26515 108.098 5.23864 107.909 5.21591C107.723 5.18939 107.544 5.17614 107.369 5.17614C106.994 5.17614 106.657 5.25758 106.358 5.42045C106.062 5.57955 105.83 5.80114 105.659 6.08523C105.489 6.36932 105.403 6.69697 105.403 7.06818V12.1989H103.347Z" fill="#1A1A1A"/>
<path d="M113.195 12.3693C112.32 12.3693 111.564 12.1875 110.928 11.8239C110.295 11.4564 109.808 10.9375 109.467 10.267C109.126 9.5928 108.956 8.79924 108.956 7.88636C108.956 6.98864 109.126 6.20076 109.467 5.52273C109.812 4.84091 110.293 4.31061 110.911 3.93182C111.528 3.54924 112.253 3.35795 113.087 3.35795C113.625 3.35795 114.132 3.44508 114.609 3.61932C115.09 3.78977 115.515 4.05492 115.882 4.41477C116.253 4.77462 116.545 5.23295 116.757 5.78977C116.969 6.3428 117.075 7.00189 117.075 7.76705V8.39773H109.922V7.01136H115.104C115.1 6.61742 115.015 6.26705 114.848 5.96023C114.681 5.64962 114.448 5.4053 114.149 5.22727C113.854 5.04924 113.509 4.96023 113.115 4.96023C112.695 4.96023 112.325 5.0625 112.007 5.26705C111.689 5.4678 111.441 5.73295 111.263 6.0625C111.089 6.38826 111 6.74621 110.996 7.13636V8.34659C110.996 8.85417 111.089 9.28977 111.274 9.65341C111.46 10.0133 111.719 10.2898 112.053 10.483C112.386 10.6723 112.776 10.767 113.223 10.767C113.522 10.767 113.793 10.7254 114.036 10.642C114.278 10.5549 114.488 10.428 114.666 10.2614C114.844 10.0947 114.979 9.88826 115.07 9.64205L116.99 9.85795C116.869 10.3655 116.638 10.8087 116.297 11.1875C115.96 11.5625 115.528 11.8542 115.001 12.0625C114.475 12.267 113.873 12.3693 113.195 12.3693Z" fill="#1A1A1A"/>
<path d="M123.236 3.47159V5.0625H118.077V3.47159H123.236ZM119.366 12.1989V2.64773C119.366 2.06061 119.488 1.57197 119.73 1.18182C119.976 0.791667 120.306 0.5 120.719 0.306818C121.132 0.113636 121.59 0.017045 122.094 0.017045C122.45 0.017045 122.766 0.0454543 123.043 0.102273C123.319 0.159091 123.524 0.210227 123.656 0.255682L123.247 1.84659C123.16 1.82008 123.05 1.79356 122.918 1.76705C122.785 1.73674 122.637 1.72159 122.474 1.72159C122.092 1.72159 121.821 1.81439 121.662 2C121.507 2.18182 121.429 2.44318 121.429 2.78409V12.1989H119.366Z" fill="#1A1A1A"/>
<path d="M130.409 8.52841V3.47159H132.466V12.1989H130.472V10.6477H130.381C130.184 11.1364 129.86 11.536 129.409 11.8466C128.962 12.1572 128.411 12.3125 127.756 12.3125C127.184 12.3125 126.678 12.1856 126.239 11.9318C125.803 11.6742 125.462 11.3011 125.216 10.8125C124.97 10.3201 124.847 9.72538 124.847 9.02841V3.47159H126.903V8.71023C126.903 9.26326 127.055 9.70265 127.358 10.0284C127.661 10.3542 128.059 10.517 128.551 10.517C128.854 10.517 129.148 10.4432 129.432 10.2955C129.716 10.1477 129.949 9.92803 130.131 9.63636C130.316 9.34091 130.409 8.97159 130.409 8.52841Z" fill="#1A1A1A"/>
<path d="M136.638 7.08523V12.1989H134.581V3.47159H136.547V4.95455H136.649C136.85 4.46591 137.17 4.07765 137.609 3.78977C138.053 3.50189 138.6 3.35795 139.251 3.35795C139.854 3.35795 140.378 3.48674 140.825 3.74432C141.276 4.00189 141.625 4.375 141.871 4.86364C142.121 5.35227 142.244 5.94508 142.24 6.64205V12.1989H140.183V6.96023C140.183 6.37689 140.032 5.92045 139.729 5.59091C139.429 5.26136 139.015 5.09659 138.484 5.09659C138.125 5.09659 137.804 5.17614 137.524 5.33523C137.248 5.49053 137.03 5.71591 136.871 6.01136C136.715 6.30682 136.638 6.66477 136.638 7.08523Z" fill="#1A1A1A"/>
<path d="M147.57 12.3523C146.884 12.3523 146.27 12.1761 145.729 11.8239C145.187 11.4716 144.759 10.9602 144.445 10.2898C144.13 9.61932 143.973 8.80492 143.973 7.84659C143.973 6.87689 144.132 6.05871 144.45 5.39205C144.772 4.72159 145.206 4.21591 145.751 3.875C146.297 3.5303 146.905 3.35795 147.575 3.35795C148.087 3.35795 148.507 3.44508 148.837 3.61932C149.166 3.78977 149.428 3.99621 149.621 4.23864C149.814 4.47727 149.964 4.70265 150.07 4.91477H150.155V0.5625H152.217V12.1989H150.195V10.8239H150.07C149.964 11.036 149.81 11.2614 149.609 11.5C149.409 11.7348 149.143 11.9356 148.814 12.1023C148.484 12.2689 148.07 12.3523 147.57 12.3523ZM148.143 10.6648C148.579 10.6648 148.95 10.5473 149.257 10.3125C149.564 10.0739 149.797 9.74242 149.956 9.31818C150.115 8.89394 150.195 8.39962 150.195 7.83523C150.195 7.27083 150.115 6.7803 149.956 6.36364C149.801 5.94697 149.57 5.62311 149.263 5.39205C148.96 5.16098 148.587 5.04545 148.143 5.04545C147.685 5.04545 147.303 5.16477 146.996 5.40341C146.689 5.64205 146.458 5.97159 146.303 6.39205C146.147 6.8125 146.07 7.29356 146.07 7.83523C146.07 8.38068 146.147 8.86742 146.303 9.29545C146.462 9.7197 146.695 10.0549 147.001 10.3011C147.312 10.5436 147.693 10.6648 148.143 10.6648Z" fill="#1A1A1A"/>
</svg>
